<?xml version="1.0" encoding="utf-8"?>
<!-- Generator: Adobe Illustrator 16.0.0, SVG Export Plug-In . SVG Version: 6.00 Build 0)  -->
<!DOCTYPE svg PUBLIC "-//W3C//DTD SVG 1.1//EN" "http://www.w3.org/Graphics/SVG/1.1/DTD/svg11.dtd">
<svg version="1.1" id="Camada_1" xmlns="http://www.w3.org/2000/svg" xmlns:xlink="http://www.w3.org/1999/xlink" x="0px" y="0px"
	 width="800px" height="800px" viewBox="0 0 800 800" enable-background="new 0 0 800 800" xml:space="preserve">
<rect x="447" y="319" fill="#FEEE00" width="12" height="10"/>
<g>
	<g>
		<path fill="#005337" d="M455.291,324.438c0.241,0,0.492-0.189,0.558-0.421l0.635-2.221c0.066-0.231-0.076-0.421-0.317-0.421
			h-4.479c0-0.483-0.392-0.875-0.875-0.875H449.5v0.875h1.313v3.719c0,0.362,0.294,0.656,0.656,0.656h4.156
			c0.241,0,0.438-0.196,0.438-0.438s-0.196-0.438-0.438-0.438h-3.938v-0.438H455.291z M451.688,322.25h3.956l-0.375,1.313h-3.581
			V322.25z M452.125,326.953c0,0.3-0.246,0.546-0.547,0.546h-0.219c-0.301,0-0.547-0.246-0.547-0.546v-0.219
			c0-0.301,0.246-0.547,0.547-0.547h0.219c0.301,0,0.547,0.246,0.547,0.547V326.953z M456.063,326.953
			c0,0.3-0.246,0.546-0.547,0.546h-0.219c-0.301,0-0.547-0.246-0.547-0.546v-0.219c0-0.301,0.246-0.547,0.547-0.547h0.219
			c0.301,0,0.547,0.246,0.547,0.547V326.953z"/>
	</g>
</g>
</svg>
